<svg xmlns="http://www.w3.org/2000/svg" width="256" height="256"><path fill-opacity=".016" d="M0 128.004v128.004l128.25-.254 128.25-.254.254-127.75L257.008 0H0v128.004m.485.496c0 70.4.119 99.053.265 63.672.146-35.38.146-92.98 0-128C.604 29.153.485 58.1.485 128.5" fill="#181A1E" fill-rule="evenodd"/><path fill-opacity=".219" d="M72.5 31.962l-55 31.841v128.423l55.224 31.903 55.223 31.902 55.277-31.917 55.276-31.917V63.846L184 32.335C154.025 15.004 129.05.666 128.5.473c-.55-.194-25.75 13.977-56 31.489" fill="#181A1E" fill-rule="evenodd"/><path fill-opacity=".781" d="M102.943 43.25c-13.399 23.237-25.76 44.592-27.468 47.453l-3.106 5.204-26.822-15.482C30.794 71.91 18.572 65.095 18.386 65.28c-.185.186 7.759 14.367 17.654 31.513l17.991 31.175-18 31.199c-9.9 17.159-17.823 31.374-17.608 31.589.215.215 12.46-6.589 27.212-15.121 14.752-8.531 26.902-15.427 27-15.323.097.103 12.38 21.338 27.294 47.188 14.915 25.85 27.451 47.115 27.859 47.255.407.14 13.068-21.105 28.134-47.212 15.067-26.106 27.66-47.322 27.986-47.146.326.175 12.445 7.167 26.933 15.537 14.488 8.369 26.499 15.059 26.692 14.866.194-.193-7.764-14.409-17.683-31.591l-18.035-31.239 18.036-31.208c9.92-17.165 17.894-31.35 17.721-31.524-.174-.173-11.286 6.046-24.694 13.82s-25.554 14.746-26.991 15.493l-2.613 1.359L155.9 48.455C140.845 22.355 128.252 1 127.916 1c-.335 0-11.573 19.013-24.973 42.25" fill="#181A1E" fill-rule="evenodd"/><path fill-opacity=".534" d="M103.065 44.082c-13.439 23.33-26 44.893-27.914 47.918-5.145 8.136-20.245 34.189-21.155 36.5-.433 1.1-8.678 15.63-18.324 32.29-15.4 26.598-17.149 30.054-14.354 28.36 8.273-5.015 48.949-28.315 50.411-28.876 2.225-.854 54.451-31.054 55.477-32.08.445-.445.693-29.097.552-63.67L127.5 1.663l-24.435 42.419" fill="#181A1E" fill-rule="evenodd"/></svg>